<svg xmlns="http://www.w3.org/2000/svg" xmlns:xlink="http://www.w3.org/1999/xlink" version="1.1" x="0px" y="0px" viewBox="0 0 64 80" style="enable-background:new 0 0 64 64;" xml:space="preserve"><g><path d="M58,15h-5v2h5c1.654,0,3,1.346,3,3v27H3V20c0-1.654,1.346-3,3-3h5v-2H6c-2.757,0-5,2.243-5,5v32c0,2.757,2.243,5,5,5h13v4   h-4v2h34v-2h-4v-4h13c2.757,0,5-2.243,5-5V20C63,17.243,60.757,15,58,15z M43,61H21v-4h22V61z M58,55H6c-1.654,0-3-1.346-3-3v-3h58   v3C61,53.654,59.654,55,58,55z"/><rect x="49" y="51" width="2" height="2"/><rect x="53" y="51" width="2" height="2"/><rect x="57" y="51" width="2" height="2"/><rect x="45" y="43" width="14" height="2"/><rect x="45" y="39" width="14" height="2"/><rect x="47" y="35" width="12" height="2"/><rect x="51" y="31" width="8" height="2"/><path d="M13,16.224V19H5v26h20V34.359c0.731,0.356,1.485,0.67,2.269,0.912L28.224,39h7.553l0.955-3.729   c0.945-0.292,1.858-0.669,2.725-1.125l3.309,1.96l5.341-5.34l-1.961-3.31c0.457-0.866,0.834-1.779,1.126-2.724L51,23.776v-7.553   l-3.729-0.955c-0.292-0.945-0.669-1.858-1.126-2.724l1.961-3.31l-5.341-5.34l-3.309,1.96c-0.866-0.457-1.779-0.833-2.725-1.125   L35.776,1h-7.553l-0.955,3.729c-0.945,0.292-1.858,0.669-2.725,1.125l-3.309-1.96l-5.341,5.34l1.961,3.31   c-0.457,0.866-0.834,1.779-1.126,2.724L13,16.224z M7,43V21h6v2.776l3.729,0.955c0.292,0.945,0.669,1.858,1.126,2.724l-1.961,3.31   l5.341,5.34L23,35.06V43H7z M18.345,16.92l0.152-0.564c0.316-1.174,0.779-2.294,1.376-3.331l0.292-0.506l-1.759-2.968l3.146-3.145   l2.968,1.758l0.507-0.292c1.035-0.597,2.155-1.06,3.329-1.376l0.564-0.152L29.776,3h4.447l0.856,3.345l0.564,0.152   c1.174,0.316,2.294,0.779,3.329,1.376l0.507,0.292l2.968-1.758l3.146,3.145l-1.759,2.968l0.292,0.506   c0.597,1.036,1.06,2.157,1.376,3.331l0.152,0.564L49,17.776v4.447l-3.345,0.856l-0.152,0.564c-0.316,1.174-0.779,2.294-1.376,3.331   l-0.292,0.506l1.759,2.968l-3.146,3.145l-2.968-1.758l-0.507,0.292c-1.035,0.597-2.155,1.06-3.329,1.376l-0.564,0.152L34.224,37   h-4.447l-0.856-3.345l-0.564-0.152c-1.174-0.316-2.294-0.779-3.329-1.376l-0.507-0.292l-2.968,1.758l-3.146-3.145l1.759-2.968   l-0.292-0.506c-0.597-1.036-1.06-2.157-1.376-3.331l-0.152-0.564L15,22.224v-4.447L18.345,16.92z"/><path d="M32,32c6.617,0,12-5.383,12-12S38.617,8,32,8s-12,5.383-12,12S25.383,32,32,32z M32,10c5.514,0,10,4.486,10,10   s-4.486,10-10,10s-10-4.486-10-10S26.486,10,32,10z"/><path d="M32,28c4.411,0,8-3.589,8-8s-3.589-8-8-8s-8,3.589-8,8S27.589,28,32,28z M32,14c3.309,0,6,2.691,6,6s-2.691,6-6,6   s-6-2.691-6-6S28.691,14,32,14z"/><rect x="29" y="19" width="2" height="2"/><rect x="33" y="19" width="2" height="2"/><rect x="9" y="23" width="2" height="2"/><rect x="9" y="27" width="4" height="2"/><rect x="9" y="31" width="4" height="2"/><rect x="9" y="35" width="8" height="2"/><rect x="9" y="39" width="12" height="2"/></g><text x="0" y="79" fill="#000000" font-size="5px" font-weight="bold" font-family="'Helvetica Neue', Helvetica, Arial-Unicode, Arial, Sans-serif">Created by Eucalyp</text><text x="0" y="84" fill="#000000" font-size="5px" font-weight="bold" font-family="'Helvetica Neue', Helvetica, Arial-Unicode, Arial, Sans-serif">from the Noun Project</text></svg>