<?xml version="1.0" encoding="utf-8"?>
<!-- Generator: Adobe Illustrator 22.0.1, SVG Export Plug-In . SVG Version: 6.00 Build 0)  -->
<svg version="1.1" id="Capa_1" xmlns="http://www.w3.org/2000/svg" xmlns:xlink="http://www.w3.org/1999/xlink" x="0px" y="0px"
	 viewBox="0 0 100 103" style="enable-background:new 0 0 100 103;" xml:space="preserve">
<style type="text/css">
	.st0{fill:#222221;}
</style>
<g>
	<polygon class="st0" points="31.9,24.1 24.9,24.1 24.9,20 31.2,20 31.2,16.9 24.9,16.9 24.9,13.4 31.6,13.4 31.6,10.2 21.1,10.2 
		21.1,27.2 31.9,27.2 	"/>
	<path class="st0" d="M38.9,24.3c-1.6,0-3.3-0.5-4.3-1.1l-0.8,3.2c1,0.5,2.9,1.1,4.8,1.1c4.7,0,6.8-2.4,6.8-5.3c0-2.4-1.4-4-4.4-5.1
		c-2.2-0.8-3.2-1.3-3.2-2.4c0-0.9,0.8-1.6,2.5-1.6c1.6,0,2.9,0.5,3.5,0.8l0.9-3.1c-1-0.5-2.4-0.9-4.3-0.9c-4,0-6.4,2.2-6.4,5.1
		c0,2.5,1.9,4,4.7,5c2,0.7,2.9,1.3,2.9,2.4C41.6,23.6,40.7,24.3,38.9,24.3z"/>
	<path class="st0" d="M65.5,14.5h4.4v9.4c0,0.6,0.4,1,1,1s1-0.4,1-1V13.5c0-0.6-0.4-1-1-1h-5.4c-0.6,0-1,0.4-1,1
		S64.9,14.5,65.5,14.5z"/>
	<polygon class="st0" points="57.9,53.6 50.9,53.6 50.9,49.5 57.2,49.5 57.2,46.4 50.9,46.4 50.9,42.9 57.6,42.9 57.6,39.7 
		47.1,39.7 47.1,56.7 57.9,56.7 	"/>
	<path class="st0" d="M64.1,51.6c0-2.8-0.1-5.2-0.2-7.4H64c0.8,2,1.9,4.2,3,6l3.6,6.6h4v-17h-3.5v4.9c0,2.6,0.1,4.9,0.3,7.1h-0.1
		c-0.8-1.9-1.8-4-2.8-5.8L65,39.7h-4.5v17H64L64.1,51.6L64.1,51.6z"/>
	<path class="st0" d="M79.5,63.9H42.3c-0.6,0-1,0.4-1,1s0.4,1,1,1h37.2c0.6,0,1-0.4,1-1S80.1,63.9,79.5,63.9z"/>
	<path class="st0" d="M79.5,69.6H42.3c-0.6,0-1,0.4-1,1s0.4,1,1,1h37.2c0.6,0,1-0.4,1-1S80.1,69.6,79.5,69.6z"/>
	<path class="st0" d="M79.5,75.3H42.3c-0.6,0-1,0.4-1,1s0.4,1,1,1h37.2c0.6,0,1-0.4,1-1S80.1,75.3,79.5,75.3z"/>
	<path class="st0" d="M66.9,81H42.3c-0.6,0-1,0.4-1,1s0.4,1,1,1h24.6c0.6,0,1-0.4,1-1S67.5,81,66.9,81z"/>
	<path class="st0" d="M95.4,26c-0.4-0.4-1-0.4-1.4,0l-2.8,2.8c-1.7-2.3-4.4-3.8-7.5-3.8c-3.8,0-7.1,2.3-8.5,5.6H59.3V3.9
		c0-1.9-1.6-3.5-3.5-3.5h-48C5.9,0.4,4.3,2,4.3,3.9v63.3c0,1.9,1.6,3.5,3.5,3.5h25.5v15.7c0,0.3,0.1,0.5,0.3,0.7l0,0l12.1,12.1
		c0.2,0.2,0.5,0.3,0.7,0.3c0,0,0,0,0.1,0h38.2c2.1,0,3.8-1.7,3.8-3.8V42.1c2.6-1.6,4.4-4.5,4.4-7.9c0-1.3-0.3-2.5-0.7-3.6l3.2-3.2
		C95.8,27,95.8,26.4,95.4,26z M7.9,68.8c-0.8,0-1.5-0.7-1.5-1.5V3.9c0-0.8,0.7-1.5,1.5-1.5h48c0.8,0,1.5,0.7,1.5,1.5v26.6H37.1
		c-2.1,0-3.8,1.7-3.8,3.8v0.3H13.2c-0.6,0-1,0.4-1,1s0.4,1,1,1h20.1v3.7H13.2c-0.6,0-1,0.4-1,1s0.4,1,1,1h20.1V46H13.2
		c-0.6,0-1,0.4-1,1s0.4,1,1,1h20.1v3.7H13.2c-0.6,0-1,0.4-1,1s0.4,1,1,1h20.1v15.1H7.9z M43.6,87.5L43.6,87.5L43.6,87.5L43.6,87.5
		c1,0,1.8,0.8,1.8,1.8l0,0v6.9l-8.7-8.7L43.6,87.5z M86.5,95.8c0,1-0.8,1.8-1.8,1.8H47.4v-8.3l0,0c0-2.1-1.7-3.8-3.8-3.8l0,0l0,0
		h-8.3V34.4c0-1,0.8-1.8,1.8-1.8h37.4c-0.1,0.5-0.2,1.1-0.2,1.7c0,5.1,4.2,9.3,9.3,9.3c1,0,2-0.2,2.9-0.5
		C86.5,43.1,86.5,95.8,86.5,95.8z M90.9,34.3c0,4-3.3,7.3-7.3,7.3s-7.3-3.3-7.3-7.3s3.3-7.3,7.3-7.3c2.5,0,4.8,1.3,6.1,3.3l-5.5,5.5
		l-3-3c-0.4-0.4-1-0.4-1.4,0s-0.4,1,0,1.4l3.7,3.7c0.2,0.2,0.4,0.3,0.7,0.3s0.5-0.1,0.7-0.3l5.7-5.7C90.8,32.8,90.9,33.5,90.9,34.3z
		"/>
</g>
</svg>
