<?xml version="1.0" encoding="utf-8"?>
<!-- Generator: Adobe Illustrator 22.0.1, SVG Export Plug-In . SVG Version: 6.00 Build 0)  -->
<svg version="1.1" id="Capa_1" xmlns="http://www.w3.org/2000/svg" xmlns:xlink="http://www.w3.org/1999/xlink" x="0px" y="0px"
	 viewBox="0 0 100 71.3" style="enable-background:new 0 0 100 71.3;" xml:space="preserve">
<path d="M63.1,17.7H34.2c-0.6,0-1-0.4-1-1s0.4-1,1-1h28.9c0.6,0,1,0.4,1,1S63.7,17.7,63.1,17.7z"/>
<path d="M52.1,21.4H34.2c-0.6,0-1-0.4-1-1s0.4-1,1-1H52c0.6,0,1,0.4,1,1S52.7,21.4,52.1,21.4z"/>
<g>
	<g>
		<path d="M56.8,33.4H45.3c-0.6,0-1-0.4-1-1c0-0.6,0.4-1,1-1h11.6c0.6,0,1,0.4,1,1C57.9,33,57.4,33.4,56.8,33.4z"/>
		<path d="M52.6,36.6h-7.4c-0.6,0-1-0.4-1-1s0.4-1,1-1h7.4c0.6,0,1,0.4,1,1S53.2,36.6,52.6,36.6z"/>
	</g>
	<path d="M37.8,38.3c-2.6,0-4.7-2.1-4.7-4.7s2.1-4.7,4.7-4.7c2.6,0,4.7,2.1,4.7,4.7S40.4,38.3,37.8,38.3z M37.8,30.9
		c-1.5,0-2.7,1.2-2.7,2.7s1.2,2.7,2.7,2.7s2.7-1.2,2.7-2.7C40.5,32.1,39.3,30.9,37.8,30.9z"/>
	<g>
		<path d="M56.8,46.5H45.3c-0.6,0-1-0.4-1-1s0.4-1,1-1h11.6c0.6,0,1,0.4,1,1S57.4,46.5,56.8,46.5z"/>
		<path d="M52.6,49.7h-7.4c-0.6,0-1-0.4-1-1s0.4-1,1-1h7.4c0.6,0,1,0.4,1,1S53.2,49.7,52.6,49.7z"/>
	</g>
	<path d="M37.8,51.4c-2.6,0-4.7-2.1-4.7-4.7s2.1-4.7,4.7-4.7c2.6,0,4.7,2.1,4.7,4.7S40.4,51.4,37.8,51.4z M37.8,44.1
		c-1.5,0-2.7,1.2-2.7,2.7c0,1.5,1.2,2.7,2.7,2.7s2.7-1.2,2.7-2.7S39.3,44.1,37.8,44.1z"/>
</g>
<g>
	<g>
		<path d="M86.2,33.4H74.7c-0.6,0-1-0.4-1-1c0-0.6,0.4-1,1-1h11.5c0.6,0,1,0.4,1,1C87.2,33,86.8,33.4,86.2,33.4z"/>
		<path d="M82,36.6h-7.4c-0.6,0-1-0.4-1-1s0.4-1,1-1H82c0.6,0,1,0.4,1,1S82.6,36.6,82,36.6z"/>
	</g>
	<path d="M67.2,38.3c-2.6,0-4.7-2.1-4.7-4.7s2.1-4.7,4.7-4.7s4.7,2.1,4.7,4.7S69.8,38.3,67.2,38.3z M67.2,30.9
		c-1.5,0-2.7,1.2-2.7,2.7s1.2,2.7,2.7,2.7s2.7-1.2,2.7-2.7C69.9,32.1,68.7,30.9,67.2,30.9z"/>
	<g>
		<path d="M86.2,46.5H74.7c-0.6,0-1-0.4-1-1s0.4-1,1-1h11.5c0.6,0,1,0.4,1,1S86.8,46.5,86.2,46.5z"/>
		<path d="M82,49.7h-7.4c-0.6,0-1-0.4-1-1s0.4-1,1-1H82c0.6,0,1,0.4,1,1S82.6,49.7,82,49.7z"/>
	</g>
	<path d="M67.2,51.4c-2.6,0-4.7-2.1-4.7-4.7s2.1-4.7,4.7-4.7s4.7,2.1,4.7,4.7S69.8,51.4,67.2,51.4z M67.2,44.1
		c-1.5,0-2.7,1.2-2.7,2.7c0,1.5,1.2,2.7,2.7,2.7s2.7-1.2,2.7-2.7S68.7,44.1,67.2,44.1z"/>
</g>
<path d="M90,66.5H10c-1.7,0-3-1.3-3-3v-59c0-1.7,1.3-3,3-3h80c1.7,0,3,1.3,3,3v59C93,65.2,91.7,66.5,90,66.5z M10,3.5
	c-0.6,0-1,0.4-1,1v59c0,0.6,0.4,1,1,1h80c0.6,0,1-0.4,1-1v-59c0-0.6-0.4-1-1-1H10z"/>
<path d="M92,11.4H8.5c-0.6,0-1-0.4-1-1s0.4-1,1-1H92c0.6,0,1,0.4,1,1S92.6,11.4,92,11.4z"/>
<circle cx="12.7" cy="6.3" r="1.3"/>
<circle cx="17.4" cy="6.3" r="1.3"/>
<circle cx="22.1" cy="6.3" r="1.3"/>
<path d="M21.6,31.3h-9.4c-0.6,0-1-0.4-1-1s0.4-1,1-1h9.4c0.6,0,1,0.4,1,1S22.2,31.3,21.6,31.3z"/>
<path d="M25.3,36H12.2c-0.6,0-1-0.4-1-1s0.4-1,1-1h13.1c0.6,0,1,0.4,1,1S25.9,36,25.3,36z"/>
<path d="M22.7,40.8H12.2c-0.6,0-1-0.4-1-1s0.4-1,1-1h10.5c0.6,0,1,0.4,1,1S23.3,40.8,22.7,40.8z"/>
<path d="M20.1,45.5h-7.9c-0.6,0-1-0.4-1-1s0.4-1,1-1h7.9c0.6,0,1,0.4,1,1S20.6,45.5,20.1,45.5z"/>
<path d="M22.7,50.2H12.2c-0.6,0-1-0.4-1-1s0.4-1,1-1h10.5c0.6,0,1,0.4,1,1S23.3,50.2,22.7,50.2z"/>
<path d="M15.9,24.6c-2.6,0-4.7-2.1-4.7-4.7c0-2.6,2.1-4.7,4.7-4.7s4.7,2.1,4.7,4.7C20.5,22.5,18.5,24.6,15.9,24.6z M15.9,17.3
	c-1.5,0-2.7,1.2-2.7,2.7s1.2,2.7,2.7,2.7s2.7-1.2,2.7-2.7S17.4,17.3,15.9,17.3z"/>
<path d="M28.5,66c-0.6,0-1-0.4-1-1V10.4c0-0.6,0.4-1,1-1s1,0.4,1,1V65C29.5,65.5,29,66,28.5,66z"/>
</svg>
