<?xml version="1.0" encoding="utf-8"?>
<!-- Generator: Adobe Illustrator 22.0.1, SVG Export Plug-In . SVG Version: 6.00 Build 0)  -->
<svg version="1.1" id="Capa_1" xmlns="http://www.w3.org/2000/svg" xmlns:xlink="http://www.w3.org/1999/xlink" x="0px" y="0px"
	 viewBox="0 0 64 66.8" style="enable-background:new 0 0 64 66.8;" xml:space="preserve">
<g>
	<path d="M33,20v-1.1c2.3-0.4,4-2,4-3.9s-1.7-3.5-4-3.9v-4c1.2,0.3,2,1,2,1.9h2c0-1.9-1.7-3.5-4-3.9V4h-2v1.1c-2.3,0.4-4,2-4,3.9
		s1.7,3.5,4,3.9v4c-1.1-0.3-2-1-2-1.9h-2c0,1.9,1.7,3.5,4,3.9V20H33z M35,15c0,0.9-0.8,1.6-2,1.9v-3.7C34.2,13.4,35,14.1,35,15z
		 M29,9c0-0.9,0.9-1.6,2-1.9v3.7C29.9,10.6,29,9.9,29,9z"/>
	<rect x="47" y="9" width="2" height="2"/>
	<rect x="47" y="13" width="2" height="2"/>
	<rect x="45" y="11" width="2" height="2"/>
	<rect x="49" y="11" width="2" height="2"/>
	<rect x="15" y="9" width="2" height="2"/>
	<rect x="15" y="13" width="2" height="2"/>
	<rect x="13" y="11" width="2" height="2"/>
	<rect x="17" y="11" width="2" height="2"/>
	<path d="M54.5,30.9c-2-1.8-5-1.7-6.9,0.2l-6.4,6.4c-2-2.5-5-4.1-8.2-4.4V32h6c3.9,0,7-3.1,7-7v-1h-7c-2.5,0-4.7,1.3-6,3.4v-4.5
		c6-0.6,10.5-5.9,10-12S37,0.5,31,1S20.5,6.9,21,13c0.5,5.3,4.7,9.5,10,10v2.8c-0.6-0.5-1.3-0.8-2-0.8h-4v2c0,1.7,1.3,3,3,3h3v3
		c-3.3,0.2-6.4,1.8-8.4,4.4h-1.3c-0.8,0-1.6,0.3-2.1,0.9L15,42.4l-2.1-2.1l-7.1,7.1l17,17l7.1-7.1l-2.1-2.1l2.2-2.2
		c0.2-0.2,0.4-0.3,0.7-0.3h8.2c0.8,0,1.6-0.3,2.1-0.9l10.5-10.5c0,0,0.1-0.1,0.1-0.1s0.1-0.1,0.1-0.1l2.7-2.7c1-1,1.6-2.4,1.6-3.9
		C56,33.1,55.4,31.8,54.5,30.9z M39,26h4.9c-0.5,2.3-2.5,4-4.9,4h-4.9C34.6,27.7,36.6,26,39,26z M28,28c-0.6,0-1-0.4-1-1h2
		c0.6,0,1,0.4,1,1H28z M23,12c0-5,4-9,9-9s9,4,9,9s-4,9-9,9C27,21,23,17,23,12z M31.8,35c3.1,0,6,1.5,7.9,3.9l-0.7,0.7
		c-0.9-1.4-2.5-2.2-4.1-2.2h-9.6C27.1,35.8,29.4,35,31.8,35z M27.1,57.3l-4.2,4.2L8.7,47.4l4.2-4.2l13.4,13.4L27.1,57.3z M53.1,36.9
		L39.7,50.3c-0.2,0.2-0.4,0.3-0.7,0.3h-8.2c-0.8,0-1.6,0.3-2.1,0.9l-2.2,2.2l-9.9-9.9l4.1-4.1c0.2-0.2,0.4-0.3,0.7-0.3h13.7
		c1.3,0,2.5,0.9,2.9,2.2l0,0.1c0.1,0.2,0.1,0.5,0.1,0.7c0,0.8-0.3,1.6-0.9,2.1c-0.6,0.6-1.4,1-2.3,1H24.7v2h10.1
		c1.4,0,2.8-0.6,3.7-1.6c0.9-0.9,1.5-2.2,1.4-3.6c0-0.2,0-0.4-0.1-0.6l9.1-9.1c1.1-1.1,3-1.2,4.1-0.1c0.6,0.5,0.9,1.3,0.9,2.1
		C54,35.4,53.7,36.3,53.1,36.9L53.1,36.9z"/>
	<path d="M12.2,46.7c-0.8,0.8-0.8,2,0,2.8s2,0.8,2.8,0s0.8-2,0-2.8c0,0,0,0,0,0C14.2,45.9,13,45.9,12.2,46.7z"/>
</g>
</svg>
